<svg width="28" height="28" viewBox="0 0 28 28" fill="none" xmlns="http://www.w3.org/2000/svg">
<path d="M28.0004 13.9995C28.0003 14.2594 27.9278 14.5142 27.7911 14.7352C27.6543 14.9563 27.4587 15.1349 27.2262 15.2511L2.02541 27.8515C1.7889 27.9695 1.52383 28.0182 1.26084 27.9918C0.997849 27.9655 0.74769 27.8652 0.539289 27.7026C0.330889 27.5401 0.172758 27.3219 0.083189 27.0732C-0.00638008 26.8245 -0.0237331 26.5556 0.0331402 26.2975L2.76603 13.9995L0.0331402 1.70288C-0.0240669 1.44467 -0.00696373 1.17553 0.0824661 0.926634C0.171894 0.677738 0.329994 0.459263 0.538458 0.296506C0.746922 0.133749 0.997223 0.0333674 1.26038 0.00698436C1.52353 -0.0193987 1.78878 0.0292957 2.02541 0.14743L27.2262 12.7478C27.4587 12.864 27.6543 13.0427 27.7911 13.2637C27.9278 13.4848 28.0003 13.7395 28.0004 13.9995ZM5.32251 15.3995L3.40445 24.0322L20.6698 15.3995L5.32251 15.3995ZM20.6698 12.5994L3.40445 3.96675L5.32251 12.5994L20.6698 12.5994Z" fill="#AF8585"/>
</svg>
